HIERARCHY
ROOT joint_Root
{
	OFFSET 0.0 0.0 0.0
	CHANNELS 6 Xposition Yposition Zposition Zrotation Xrotation Yrotation 
	JOINT Hips
	{
		OFFSET -0.726466 93.3139 -2.00062
		CHANNELS 6 Xposition Yposition Zposition Zrotation Xrotation Yrotation 
		JOINT Spine
		{
			OFFSET 15.7357 0.0 0.0
			CHANNELS 6 Xposition Yposition Zposition Zrotation Xrotation Yrotation 
			JOINT Chest
			{
				OFFSET 8.98455 -0.406207 0.0
				CHANNELS 6 Xposition Yposition Zposition Zrotation Xrotation Yrotation 
				JOINT Neck
				{
					OFFSET 16.3773 0.0 0.0
					CHANNELS 6 Xposition Yposition Zposition Zrotation Xrotation Yrotation 
					JOINT Head
					{
						OFFSET 6.45672 0.0 0.0
						CHANNELS 6 Xposition Yposition Zposition Zrotation Xrotation Yrotation 
						End Site
						{
							OFFSET 0.0 0.0 0.0
						}
					}
				}
				JOINT Shoulder_L
				{
					OFFSET 12.9942 -0.242716 4.98039
					CHANNELS 6 Xposition Yposition Zposition Zrotation Xrotation Yrotation 
					JOINT UpperArm_L
					{
						OFFSET 5.34809 0.0 0.0
						CHANNELS 6 Xposition Yposition Zposition Zrotation Xrotation Yrotation 
						JOINT LowerArm_L
						{
							OFFSET 24.3286 1.87007e-05 0.0
							CHANNELS 6 Xposition Yposition Zposition Zrotation Xrotation Yrotation 
							JOINT Hand_L
							{
								OFFSET 22.2916 0.0 0.0
								CHANNELS 6 Xposition Yposition Zposition Zrotation Xrotation Yrotation 
								End Site
								{
									OFFSET 0.0 0.0 0.0
								}
							}
						}
					}
				}
				JOINT Shoulder_R
				{
					OFFSET 12.9945 -0.242716 -4.98039
					CHANNELS 6 Xposition Yposition Zposition Zrotation Xrotation Yrotation 
					JOINT UpperArm_R
					{
						OFFSET -5.34813 0.0 0.0
						CHANNELS 6 Xposition Yposition Zposition Zrotation Xrotation Yrotation 
						JOINT LowerArm_R
						{
							OFFSET -24.3289 0.000322201 0.0
							CHANNELS 6 Xposition Yposition Zposition Zrotation Xrotation Yrotation 
							JOINT Hand_R
							{
								OFFSET -22.2915 -0.000108084 0.0
								CHANNELS 6 Xposition Yposition Zposition Zrotation Xrotation Yrotation 
								End Site
								{
									OFFSET 0.0 0.0 0.0
								}
							}
						}
					}
				}
			}
		}
		JOINT UpperLeg_L
		{
			OFFSET -2.19248 -6.46944 0.0
			CHANNELS 6 Xposition Yposition Zposition Zrotation Xrotation Yrotation 
			JOINT LowerLeg_L
			{
				OFFSET 39.0811 0.0 -1.23785e-05
				CHANNELS 6 Xposition Yposition Zposition Zrotation Xrotation Yrotation 
				JOINT Foot_L
				{
					OFFSET 40.9854 0.0 -1.26872e-05
					CHANNELS 6 Xposition Yposition Zposition Zrotation Xrotation Yrotation 
					JOINT Toes_L
					{
						OFFSET 11.7543 0.0 0.0
						CHANNELS 6 Xposition Yposition Zposition Zrotation Xrotation Yrotation 
						End Site
						{
							OFFSET 0.0 0.0 0.0
						}
					}
				}
			}
		}
		JOINT UpperLeg_R
		{
			OFFSET -2.19251 6.46944 0.0
			CHANNELS 6 Xposition Yposition Zposition Zrotation Xrotation Yrotation 
			JOINT LowerLeg_R
			{
				OFFSET -39.0811 -0.00228153 -0.0401928
				CHANNELS 6 Xposition Yposition Zposition Zrotation Xrotation Yrotation 
				JOINT Foot_R
				{
					OFFSET -40.9854 0.0 0.0
					CHANNELS 6 Xposition Yposition Zposition Zrotation Xrotation Yrotation 
					JOINT Toes_R
					{
						OFFSET -11.7543 0.0 0.0
						CHANNELS 6 Xposition Yposition Zposition Zrotation Xrotation Yrotation 
						End Site
						{
							OFFSET 0.0 0.0 0.0
						}
					}
				}
			}
		}
	}
}
MOTION
Frames:	6
Frame Time:	0.0333333
0.000000 0.000000 0.000000 0.000000 0.000000 -0.000000 -6.078850 89.043700 453.332000 -87.559100 -1.199240 166.492000 15.735700 0.000005 -0.000001 55.607800 81.141100 -53.135700 8.984550 -0.406207 -0.000000 7.158880 -9.986840 5.575200 16.377300 -0.000001 -0.000001 -2.430790 -0.530696 0.157305 6.456720 -0.000001 -0.000000 -9.372140 7.320230 -0.971074 12.994200 -0.242716 4.980390 -87.399900 -9.451510 -74.540000 5.348090 -0.000007 -0.000001 -72.303900 25.293700 -17.226600 24.328600 0.000019 0.000005 4.448670 -1.897580 -113.032000 22.291600 -0.000001 0.000005 7.753850 5.609700 -11.900300 12.994500 -0.242716 -4.980390 91.308100 -2.901420 -65.727600 -5.348130 -0.000001 -0.000004 -66.876500 28.074500 15.983600 -24.328900 0.000322 -0.000009 -1.049750 -0.239951 -77.110300 -22.291500 -0.000108 -0.000004 7.296130 5.565760 -9.470860 -2.192480 -6.469440 -0.000000 -176.710000 -6.246910 4.189520 39.081100 -0.000007 -0.000012 -0.063639 0.059010 47.163000 40.985400 -0.000006 -0.000013 -0.098316 -1.521200 -34.570900 11.754300 -0.000000 0.000003 -0.006982 -0.079521 -19.814100 -2.192510 6.469440 -0.000001 -162.468000 13.594300 142.868000 -39.081100 -0.002282 -0.040193 0.020493 -0.024951 34.582200 -40.985400 0.000008 0.000006 0.622214 -0.557343 -68.552400 -11.754300 -0.000006 -0.000006 -0.028810 -0.211957 -25.253600
0.000000 0.000000 0.000000 0.000000 0.000000 -0.000000 -6.367900 86.303800 446.353000 -86.768200 1.039030 168.293000 15.735700 0.000005 -0.000001 65.192100 81.446700 -62.366100 8.984550 -0.406207 -0.000000 7.992050 -7.142020 6.151740 16.377300 -0.000001 -0.000001 -2.578200 -0.360596 -0.734112 6.456720 -0.000001 -0.000000 -8.731020 6.112220 -1.812080 12.994200 -0.242716 4.980390 -87.777900 -7.624750 -73.697200 5.348090 -0.000007 -0.000001 -74.082000 28.531400 -11.864200 24.328600 0.000019 0.000005 3.411410 -0.828160 -103.621000 22.291600 -0.000001 0.000005 10.780200 5.641890 -14.233000 12.994500 -0.242716 -4.980390 90.041200 -0.098033 -67.595700 -5.348130 -0.000001 -0.000004 -65.522400 27.504100 10.101100 -24.328900 0.000322 -0.000009 -0.832205 -0.162747 -78.897900 -22.291500 -0.000108 -0.000004 8.782590 5.582310 -10.322800 -2.192480 -6.469440 -0.000000 -175.798000 -8.509830 -3.076090 39.081100 -0.000007 -0.000012 -0.126837 0.045400 70.308200 40.985400 -0.000006 -0.000013 -1.438980 -3.155000 -34.976600 11.754300 -0.000000 0.000003 -0.006046 -0.071259 -19.476900 -2.192510 6.469440 -0.000001 -162.600000 10.722000 145.116000 -39.081100 -0.002282 -0.040193 -0.318019 0.335068 43.797600 -40.985400 0.000008 0.000006 11.381200 -4.888670 -73.068700 -11.754300 -0.000006 -0.000006 -0.022319 -0.179808 -23.924000
0.000000 0.000000 0.000000 0.000000 0.000000 -0.000000 -6.497010 83.480300 440.270000 -85.033700 4.408280 171.079000 15.735700 0.000005 -0.000001 79.503800 80.931500 -76.081500 8.984550 -0.406207 -0.000000 10.185100 -3.210320 7.127930 16.377300 -0.000001 -0.000001 -3.722800 0.416897 -1.452920 6.456720 -0.000001 -0.000000 -7.905730 4.574750 -3.089200 12.994200 -0.242716 4.980390 -88.270600 -5.531390 -72.603900 5.348090 -0.000007 -0.000001 -74.832900 30.552800 -7.554530 24.328600 0.000019 0.000005 4.401850 -0.038850 -90.557800 22.291600 -0.000001 0.000005 10.386600 5.653560 -15.366900 12.994500 -0.242716 -4.980390 88.772100 3.395620 -70.088700 -5.348130 -0.000001 -0.000004 -61.165700 27.614500 -0.007297 -24.328900 0.000322 -0.000009 -2.111270 -0.335017 -80.974800 -22.291500 -0.000108 -0.000004 11.741000 5.592980 -10.934900 -2.192480 -6.469440 -0.000000 -174.427000 -11.321800 -11.992200 39.081100 -0.000007 -0.000012 -0.290086 -0.015723 93.104400 40.985400 -0.000006 -0.000013 3.623010 -6.266360 -37.424300 11.754300 -0.000000 0.000003 -0.007026 -0.079900 -19.829500 -2.192510 6.469440 -0.000001 -162.775000 4.583080 149.062000 -39.081100 -0.002282 -0.040193 -0.151988 0.118780 52.576400 -40.985400 0.000008 0.000006 12.132700 -10.659700 -80.763000 -11.754300 -0.000006 -0.000006 -0.010822 -0.109683 -21.043000
0.000000 0.000000 0.000000 0.000000 0.000000 -0.000000 -6.453400 81.428100 435.022000 -84.563900 6.747160 172.029000 15.735700 0.000005 -0.000001 87.191900 80.519500 -83.636600 8.984550 -0.406207 -0.000000 11.208600 -0.814819 7.187630 16.377300 -0.000001 -0.000001 -3.624240 1.422520 -1.456620 6.456720 -0.000001 -0.000000 -7.942960 3.873590 -4.692530 12.994200 -0.242716 4.980390 -88.411200 -4.654870 -71.129900 5.348090 -0.000007 -0.000001 -73.823900 32.675700 -4.398360 24.328600 0.000019 0.000005 11.353100 3.208370 -74.577700 22.291600 -0.000001 0.000005 7.399650 5.635550 -13.640700 12.994500 -0.242716 -4.980390 88.307000 5.301220 -72.260300 -5.348130 -0.000001 -0.000004 -56.315500 29.458300 -15.739300 -24.328900 0.000322 -0.000009 -2.074290 -0.257329 -82.924800 -22.291500 -0.000108 -0.000004 15.225700 5.587880 -10.637200 -2.192480 -6.469440 -0.000000 -175.881000 -10.610600 -25.926900 39.081100 -0.000007 -0.000012 -0.735928 -0.283981 111.100000 40.985400 -0.000006 -0.000013 11.050100 -7.805510 -38.318800 11.754300 -0.000000 0.000003 -0.007969 -0.087789 -20.151600 -2.192510 6.469440 -0.000001 -163.111000 6.981720 152.580000 -39.081100 -0.002282 -0.040193 0.016548 -0.008631 57.077900 -40.985400 0.000008 0.000006 13.405500 -8.853070 -87.834300 -11.754300 -0.000006 -0.000006 -0.007570 -0.084486 -20.013000
0.000000 0.000000 0.000000 0.000000 0.000000 -0.000000 -6.720480 80.510300 428.934000 -86.259800 9.259830 172.464000 15.735700 0.000005 -0.000001 94.990000 80.494200 -92.073100 8.984550 -0.406207 -0.000000 11.139500 1.726890 5.663060 16.377300 -0.000001 -0.000001 -3.208770 1.177760 -1.109030 6.456720 -0.000001 -0.000000 -6.717910 2.959250 -5.887040 12.994200 -0.242716 4.980390 -88.500900 -4.215430 -70.403400 5.348090 -0.000007 -0.000001 -71.185600 36.013200 1.092520 24.328600 0.000019 0.000005 44.695900 13.467700 -76.738700 22.291600 -0.000001 0.000005 -8.978100 5.635520 -13.787500 12.994500 -0.242716 -4.980390 88.767100 4.120610 -73.328800 -5.348130 -0.000001 -0.000004 -52.453400 30.313100 -31.442400 -24.328900 0.000322 -0.000009 -0.638516 -0.008734 -89.355000 -22.291500 -0.000108 -0.000004 15.337100 5.599420 -11.309100 -2.192480 -6.469440 -0.000000 -179.649000 -8.686930 -38.333100 39.081100 -0.000007 -0.000012 -1.003050 -0.570540 119.629000 40.985400 -0.000006 -0.000013 15.749600 -10.683600 -42.059400 11.754300 -0.000000 0.000003 -0.007702 -0.085591 -20.061800 -2.192510 6.469440 -0.000001 -167.125000 10.002500 157.877000 -39.081100 -0.002282 -0.040193 0.183995 -0.114369 57.681000 -40.985400 0.000008 0.000006 14.234600 -5.285730 -93.551700 -11.754300 -0.000006 -0.000006 -0.006901 -0.078814 -19.781500
0.000000 0.000000 0.000000 0.000000 0.000000 -0.000000 -7.115940 81.370700 421.642000 -89.103800 12.953100 171.718000 15.735700 0.000005 -0.000001 104.483000 80.914900 -103.051000 8.984550 -0.406207 -0.000000 9.793750 4.541940 2.475260 16.377300 -0.000001 -0.000001 -2.377540 1.297110 -0.538754 6.456720 -0.000001 -0.000000 -5.670500 0.942829 -5.584600 12.994200 -0.242716 4.980390 -88.099500 -4.765510 -68.230700 5.348090 -0.000007 -0.000001 -69.175500 41.109800 8.834400 24.328600 0.000019 0.000005 37.945500 9.560070 -77.991100 22.291600 -0.000001 0.000005 -11.082000 5.587670 -10.623200 12.994500 -0.242716 -4.980390 89.342000 2.339090 -74.285700 -5.348130 -0.000001 -0.000004 -49.625100 30.048300 -43.593600 -24.328900 0.000322 -0.000009 0.936221 -0.130924 -97.944500 -22.291500 -0.000108 -0.000004 14.296200 5.606370 -11.730200 -2.192480 -6.469440 -0.000000 175.474000 -7.245560 -46.954600 39.081100 -0.000007 -0.000012 -0.880717 -0.462566 117.708000 40.985400 -0.000006 -0.000013 17.673800 -15.399900 -47.953100 11.754300 -0.000000 0.000003 -0.007799 -0.086391 -20.094500 -2.192510 6.469440 -0.000001 -173.722000 11.150500 164.883000 -39.081100 -0.002282 -0.040193 0.123752 -0.092810 52.399400 -40.985400 0.000008 0.000006 14.042600 -0.066120 -94.614200 -11.754300 -0.000006 -0.000006 -0.010211 -0.105204 -20.859700
